<svg width="282" height="146" viewBox="0 0 282 146" fill="none" xmlns="http://www.w3.org/2000/svg">
<path d="M248.033 10.5775C245.552 5.43491 240.367 2.14682 234.657 2.09583L15.134 0.135168C6.79765 0.0607128 0 6.79793 0 15.1346V131C0 139.284 6.71573 146 15 146H229.481C237.766 146 244.481 139.284 244.481 131V103.507L245.509 87.8334C246.028 79.9171 253.308 74.2061 261.12 75.5864V75.5864C263.641 76.0318 265.98 77.1941 267.858 78.9342L275.481 86V86C277.177 87.5609 279.853 85.9039 279.211 83.6902L275.481 70.8209L264.481 44.6716L248.033 10.5775Z" fill="#40C5B8"/>
<path d="M246.686 13.0613C244.143 7.98627 238.953 4.78174 233.276 4.78174H17.6999C9.41561 4.78174 2.69989 11.4975 2.69989 19.7817V126.877C2.69989 135.161 9.41562 141.877 17.6999 141.877H227.537C235.821 141.877 242.537 135.161 242.537 126.877V86.8562C242.537 77.8962 250.589 71.0847 259.425 72.5701V72.5701C261.116 72.8543 262.743 73.4364 264.23 74.2893L271.285 78.335C271.416 78.4098 271.539 78.4973 271.652 78.5962V78.5962C273.48 80.1893 276.209 78.2335 275.288 75.9906L261.981 43.5819L246.686 13.0613Z" fill="white"/>
</svg>
