<svg width="433" height="434" viewBox="0 0 433 434" fill="none" xmlns="http://www.w3.org/2000/svg">
<path d="M216.307 28.6569C266.615 28.6569 313.912 48.2479 349.485 83.8209C385.058 119.394 404.649 166.691 404.649 216.999C404.649 267.307 385.058 314.604 349.485 350.177C313.912 385.75 266.615 405.341 216.307 405.341C165.999 405.341 118.702 385.75 83.1281 350.177C47.555 314.604 27.964 267.307 27.964 216.999C27.964 166.691 47.555 119.394 83.1281 83.8209C118.702 48.2479 165.999 28.6569 216.307 28.6569ZM216.307 0.693848C96.844 0.693848 0 97.5379 0 217C0 336.462 96.844 433.306 216.307 433.306C335.77 433.306 432.613 336.462 432.613 217C432.613 97.5379 335.77 0.693848 216.307 0.693848Z" fill="#3EB79A"/>
<path d="M362.823 176.12L194.66 344.279L69.791 219.41L121.912 167.289L194.66 240.036L310.702 123.999L362.823 176.12Z" fill="#3EB79A"/>
</svg>
