<svg width="433" height="434" viewBox="0 0 433 434" fill="none" xmlns="http://www.w3.org/2000/svg">
<path d="M216.465 28.6569C266.773 28.6569 314.07 48.2479 349.643 83.8209C385.216 119.394 404.807 166.691 404.807 216.999C404.807 267.307 385.216 314.604 349.643 350.177C314.07 385.75 266.773 405.341 216.465 405.341C166.157 405.341 118.86 385.75 83.2861 350.177C47.7131 314.604 28.1222 267.307 28.1222 216.999C28.1222 166.691 47.7131 119.394 83.2861 83.8209C118.86 48.2479 166.156 28.6569 216.465 28.6569ZM216.465 0.693848C97.0022 0.693848 0.15918 97.5379 0.15918 217C0.15918 336.462 97.0032 433.306 216.465 433.306C335.927 433.306 432.771 336.462 432.771 217C432.771 97.5379 335.928 0.693848 216.465 0.693848Z" fill="#B72944"/>
<path d="M268.584 216.996L326.609 275.021L274.489 327.14L216.465 269.115L158.44 327.14L106.321 275.021L164.345 216.996L106.321 158.979L158.448 106.86L216.465 164.876L274.481 106.86L326.609 158.979L268.584 216.996Z" fill="#B72944"/>
</svg>
